Coordinates
version=1
nRows=13
nColumns=36
inDegrees=yes

Units are S.I. units (second, meters, Newtons, ...)
If the header above contains a line with 'inDegrees', this indicates whether rotational values are in degrees (yes) or radians (no).

endheader
time	pelvis_tilt	pelvis_list	pelvis_rotation	pelvis_tx	pelvis_ty	pelvis_tz	hip_flexion_r	hip_adduction_r	hip_rotation_r	knee_angle_r	knee_angle_r_beta	ankle_angle_r	subtalar_angle_r	mtp_angle_r	hip_flexion_l	hip_adduction_l	hip_rotation_l	knee_angle_l	knee_angle_l_beta	ankle_angle_l	subtalar_angle_l	mtp_angle_l	lumbar_extension	lumbar_bending	lumbar_rotation	arm_flex_r	arm_add_r	arm_rot_r	elbow_flex_r	pro_sup_r	arm_flex_l	arm_add_l	arm_rot_l	elbow_flex_l	pro_sup_l
      1.41000000	     -4.80209669	     -6.41260961	     -2.37797022	      1.17056364	      1.11258971	     -0.25037905	     23.80015198	     11.07364432	     -4.42452034	      7.93379193	      0.13847079	      2.96382999	     -1.41025346	     -7.49999987	     -5.95744677	     -0.29209298	     -3.05837820	      5.94080547	      0.10368662	     11.01617752	     -3.26072395	     -7.49999987	    -12.21676973	     -6.34889985	    -14.12980667	     -3.22515018	     -6.37380890	     -4.94993728	     26.54763553	     90.10402713	      3.11097346	    -11.91976723	    -19.32637862	     39.14510703	     94.18056290
      1.42000000	     -4.97394972	     -6.15320688	     -2.48512515	      1.17869078	      1.11004331	     -0.25132327	     24.15281397	     10.95626875	     -4.30361166	      7.03551890	      0.12279297	      2.86619995	     -0.58606005	     -7.49999987	     -6.15434162	      0.05925000	     -3.15476596	      6.12853683	      0.10696315	     11.59543468	     -3.06254015	     -7.49999987	    -12.03362903	     -6.28419467	    -14.10090729	     -3.14001622	     -6.59810727	     -4.50590850	     26.63736513	     90.30886326	      2.80082968	    -11.81821960	    -19.12508492	     39.19609359	     94.15641483
      1.43000000	     -5.09860950	     -5.91877840	     -2.63114498	      1.18698677	      1.10775173	     -0.25246747	     24.46429234	     10.79061608	     -4.32462175	      6.25074102	      0.10909601	      3.02698152	      0.12977528	     -7.49999987	     -6.43446093	      0.40910664	     -3.18992926	      6.25949654	      0.10924882	     12.02125786	     -2.93657205	     -7.49999987	    -11.96436437	     -6.13494427	    -13.91598631	     -3.23881352	     -6.87040433	     -4.07546673	     27.12339568	     89.87669165	      2.57180769	    -11.68357351	    -18.66070014	     39.24729419	     93.45831772
      1.44000000	     -5.29732292	     -5.68197832	     -2.81390056	      1.19563008	      1.10575504	     -0.25385012	     24.85243199	     10.56523277	     -4.29455116	      5.57879477	      0.09736834	      3.30626962	      0.34697909	     -7.49999987	     -6.63298426	      0.75602783	     -3.35917938	      6.41718463	      0.11200100	     12.57204071	     -2.43857353	     -7.49999987	    -11.78606304	     -5.93463337	    -13.76929591	     -3.23691636	     -7.06232790	     -4.17828868	     27.34831703	     90.05344771	      2.24490818	    -11.45919408	    -18.49771706	     39.27213848	     93.42279048
      1.45000000	     -5.45681298	     -5.46710470	     -2.98241259	      1.20457796	      1.10446406	     -0.25556028	     25.17503515	     10.28525352	     -4.32338838	      4.99721392	      0.08721784	      3.79033219	      0.21088824	     -7.49999987	     -6.89834883	      1.09090870	     -3.34718598	      6.53254858	      0.11401448	     12.90264077	     -2.16429788	     -7.49999987	    -11.69043613	     -5.63553278	    -13.54573794	     -3.33046706	     -7.31537101	     -4.16273486	     27.79583411	     89.67163205	      1.99998757	    -11.22350271	    -18.03163743	     39.16891136	     92.74630531
      1.46000000	     -5.61245194	     -5.25195165	     -3.13337009	      1.21390446	      1.10395625	     -0.25742903	     25.46813346	      9.94885700	     -4.34100994	      4.55089711	      0.07942814	      4.35590823	     -0.05720999	     -7.49999987	     -7.18964956	      1.42847484	     -3.16195345	      6.62383617	      0.11560775	     13.10733766	     -2.04684200	     -7.49999987	    -11.60660899	     -5.31884529	    -13.36065905	     -3.32074156	     -7.51722653	     -4.20684592	     28.02250123	     89.71021008	      1.68057240	    -10.90448131	    -17.95490028	     39.14806324	     92.78056549
      1.47000000	     -5.73664390	     -5.03698668	     -3.24084624	      1.22350512	      1.10414002	     -0.25938700	     25.67697830	      9.56509062	     -4.38786855	      4.21580311	      0.07357964	      4.89355473	     -0.40258423	     -7.49999987	     -7.51269049	      1.75902139	     -2.99249664	      6.72610136	      0.11739261	     13.21574590	     -1.88242353	     -7.49999987	    -11.56618619	     -4.95197811	    -13.21226271	     -3.28320138	     -7.76743988	     -4.25422787	     28.22794219	     89.75158244	      1.38721996	    -10.52214082	    -17.85058127	     39.08673450	     92.82728541
      1.48000000	     -5.91933531	     -4.82833332	     -3.30238550	      1.23340812	      1.10457008	     -0.26108684	     25.90458830	      9.19494100	     -4.08162207	      4.05422757	      0.07075962	      5.38365184	     -1.34367600	     -7.49999987	     -7.73941361	      2.03647002	     -2.85369592	      6.92553045	      0.12087331	     13.53047705	     -1.31598925	     -7.49999987	    -11.49600794	     -4.50341927	    -12.99188078	     -3.66611788	     -8.04424079	     -4.44963040	     29.41070872	     90.00323837	      1.14705447	    -10.18531162	    -17.53972406	     38.94597616	     93.05569497
      1.49000000	     -5.95497336	     -4.65525431	     -3.28199532	      1.24348335	      1.10522258	     -0.26260046	     25.87020678	      8.85092791	     -3.67349266	      3.96096382	      0.06913186	      5.71589736	     -2.28648544	     -7.49999987	     -8.16929064	      2.26434863	     -2.63947031	      7.05259110	      0.12309094	     13.59497442	     -0.93163639	     -7.49999987	    -11.51137086	     -4.04965162	    -12.63285656	     -3.95421441	     -8.25068624	     -4.97599680	     30.00314684	     90.30630707	      1.06378669	     -9.81446378	    -17.04882047	     38.56965539	     93.34707363
      1.50000000	     -6.05233223	     -4.45862217	     -3.20297542	      1.25345278	      1.10540284	     -0.26393427	     25.88469076	      8.47243121	     -3.54875878	      4.07963337	      0.07120303	      6.09642913	     -2.51686719	     -7.49999987	     -8.46983426	      2.49094750	     -2.32933807	      7.27849095	      0.12703363	     13.51919532	     -0.71748330	     -7.49999987	    -11.42145545	     -3.64071174	    -12.51351925	     -3.98841104	     -8.45551211	     -5.05086107	     30.08665569	     90.28507678	      0.74975908	     -9.41367359	    -16.92520545	     38.48594211	     93.32562887
      1.51000000	     -6.00181904	     -4.33279492	     -3.05043326	      1.26349317	      1.10521190	     -0.26497597	     25.64344016	      8.21151650	     -2.80890118	      4.26849028	      0.07449921	      6.03708847	     -3.79714198	     -7.49999987	     -8.95220876	      2.60435108	     -2.10664796	      7.48897707	      0.13070731	     13.49902136	     -0.20857806	     -7.49999987	    -11.48917731	     -3.13520315	    -12.20359989	     -4.36627373	     -8.64142335	     -5.56650564	     30.84417745	     90.60378605	      0.72794023	     -9.09650714	    -16.28304490	     37.86591955	     93.59995388
      1.52000000	     -6.00641145	     -4.17169381	     -2.87480017	      1.27351224	      1.10456058	     -0.26592821	     25.42599650	      7.91557726	     -2.57586324	      4.59015856	      0.08011338	      6.04594642	     -3.82444322	     -7.49999987	     -9.31569227	      2.73926301	     -1.85801612	      7.78572299	      0.13588650	     13.29678012	      0.01823723	     -7.49999987	    -11.39156523	     -2.76207767	    -12.11992538	     -4.42228061	     -8.81263413	     -5.62009775	     30.84777731	     90.61824733	      0.35887107	     -8.69635417	    -16.17297295	     37.72731799	     93.62424908
      1.53000000	     -5.94872982	     -4.05660966	     -2.66144919	      1.28348524	      1.10389484	     -0.26686349	     25.17424411	      7.71608160	     -1.71550957	      5.12791760	      0.08949905	      5.56920328	     -5.12357388	     -7.49999987	     -9.69955314	      2.78382629	     -1.84492044	      8.15183993	      0.14227645	     13.15855298	      0.74879465	     -7.49999987	    -11.49000051	     -2.21757142	    -11.94628797	     -4.64226502	     -8.96065966	     -5.99826281	     31.47588259	     90.94035539	      0.34499234	     -8.40828247	    -15.60102858	     37.04261328	     93.89841280
